<svg width="256" height="256" viewBox="0 0 256 256" fill="none" xmlns="http://www.w3.org/2000/svg">
<mask id="mask0_404_73" style="mask-type:alpha" maskUnits="userSpaceOnUse" x="0" y="0" width="256" height="256">
<rect width="256" height="256" rx="59" fill="#D9D9D9"/>
</mask>
<g mask="url(#mask0_404_73)">
<path d="M200.25 -8H55.75C20.5418 -8 -8 20.5418 -8 55.75V200.25C-8 235.458 20.5418 264 55.75 264H200.25C235.458 264 264 235.458 264 200.25V55.75C264 20.5418 235.458 -8 200.25 -8Z" fill="#F4F2ED"/>
<mask id="mask1_404_73" style="mask-type:luminance" maskUnits="userSpaceOnUse" x="32" y="32" width="192" height="192">
<path d="M223.625 32.375H32.375V223.625H223.625V32.375Z" fill="white"/>
</mask>
<g mask="url(#mask1_404_73)">
<path fill-rule="evenodd" clip-rule="evenodd" d="M208.539 181.348C198.137 181.059 190.067 182.125 183.304 184.97C181.357 185.752 178.232 185.752 177.975 188.203C179.016 189.232 179.141 190.915 180.054 192.341C181.613 194.928 184.348 198.413 186.817 200.221L195.141 206.169C200.213 209.268 205.936 211.08 210.877 214.183C213.74 215.993 216.6 218.32 219.462 220.261C220.92 221.295 221.803 222.979 223.625 223.622V223.231C222.716 222.072 222.453 220.392 221.547 219.093L217.64 215.347C213.871 210.307 209.186 205.908 204.113 202.292C199.95 199.448 190.849 195.571 189.158 190.791L188.902 190.5C191.759 190.211 195.141 189.205 197.874 188.43C202.3 187.27 206.329 187.525 210.877 186.363L217.125 184.553V183.393C214.783 181.068 213.093 177.964 210.623 175.769C203.991 170.081 196.702 164.521 189.158 159.869C185.126 157.285 179.922 155.601 175.631 153.408C174.066 152.631 171.468 152.243 170.559 150.951C168.211 148.112 166.914 144.359 165.224 140.996L154.559 118.505C152.219 113.464 150.784 108.422 147.927 103.77C134.528 81.7944 119.958 68.4817 97.586 55.424C92.7758 52.7093 87.053 51.5418 80.9688 50.1221L71.2144 49.6007C69.1299 48.6967 67.0513 46.2399 65.2293 45.0752C57.8157 40.4223 38.6943 30.34 33.2282 43.6265C29.7152 52.0285 38.432 60.3 41.3909 64.5677C43.6066 67.5401 46.4635 70.9009 48.0291 74.2617C48.9037 76.4578 49.1952 78.7871 50.1077 81.1137C52.1862 86.8008 54.1395 93.137 56.8711 98.4391C58.3288 101.154 59.8593 104.001 61.6814 106.456C62.7221 107.904 64.5442 108.524 64.9319 110.85C63.1098 113.437 62.9845 117.311 61.9437 120.548C57.2588 135.155 59.0809 153.251 65.7131 164.006C67.7977 167.236 72.7099 174.348 79.3742 171.632C85.2281 169.305 83.9221 161.937 85.6129 155.473C86.0065 153.924 85.7441 152.889 86.5225 151.852V152.142L91.8574 162.87C95.8893 169.204 102.916 175.798 108.766 180.195C111.885 182.522 114.358 186.532 118.258 187.952V187.561H118.002C117.22 186.401 116.048 185.88 115.008 184.975C112.667 182.65 110.066 179.804 108.244 177.22C102.784 169.983 97.9737 161.966 93.6795 153.694C91.5951 149.688 89.773 145.292 88.088 141.285C87.3009 139.733 87.3009 137.403 86.0036 136.633C84.0503 139.472 81.1934 141.935 79.7561 145.423C77.284 150.98 77.0274 157.832 76.1179 164.942C75.5931 165.072 75.8263 164.942 75.5931 165.231C71.4359 164.2 70.0016 159.929 68.442 156.313C64.5412 147.136 63.8882 132.4 67.2699 121.799C68.1795 119.085 72.086 110.553 70.5264 107.968C69.7392 105.511 67.1445 104.092 65.7103 102.15C64.0194 99.6939 62.2032 96.5935 61.0312 93.8788C57.9118 86.6357 56.3522 78.6249 52.9676 71.3848C51.402 68.024 48.6734 64.5328 46.4606 61.4329C43.9885 57.9417 41.2627 55.4849 39.3095 51.3505C38.6593 49.9019 37.7497 47.6016 38.7906 46.0486C39.0471 45.0144 39.5718 44.6 40.6068 44.3683C42.2977 42.9197 47.1137 44.7565 48.8045 45.5272C53.6148 47.4682 57.6465 49.2762 61.6784 51.9879C63.5005 53.2801 65.4538 55.7369 67.7947 56.3859H70.5292C74.6922 57.2899 79.3713 56.6756 83.269 57.8345C90.1637 60.0364 96.4053 63.2639 102.003 66.7579C119.04 77.4863 133.092 92.7402 142.583 110.969C144.143 113.942 144.793 116.657 146.227 119.759C148.962 126.096 152.344 132.557 155.069 138.765C157.804 144.841 160.404 151.05 164.306 156.09C166.259 158.805 174.059 160.225 177.57 161.647C180.173 162.806 184.202 163.85 186.549 165.269C190.968 167.984 195.391 171.086 199.551 174.059C201.629 175.606 208.137 178.84 208.524 181.418L208.539 181.348ZM75.8934 69.0177C74.0963 69.0019 72.3048 69.2192 70.5642 69.6639V69.9536H70.8208C71.8615 72.0222 73.6836 73.4447 74.9838 75.2555L77.9778 81.4613L78.2343 81.1716C80.0564 79.8794 80.9688 77.8108 80.9688 74.7107C80.1876 73.8069 80.0593 72.9 79.4092 71.996C78.6279 70.7039 76.9371 70.055 75.8934 69.0236V69.0177Z" fill="#00678C"/>
</g>
</g>
</svg>
